<?xml version="1.0" encoding="UTF-8"?>
<!DOCTYPE svg PUBLIC "-//W3C//DTD SVG 1.1//EN"
    "http://www.w3.org/Graphics/SVG/1.1/DTD/svg11.dtd" >
<svg contentScriptType="text/ecmascript" width="1728.0"
     xmlns:xlink="http://www.w3.org/1999/xlink" zoomAndPan="magnify"
     contentStyleType="text/css"
     viewBox="-1201.000000 -466.000000 1728.000000 974.000000" height="974.0"
     preserveAspectRatio="xMidYMid meet" xmlns="http://www.w3.org/2000/svg"
     version="1.1">
    <g id="edges">
        <path stroke-linecap="round" fill="none" class="id_n0 id_n12"
              d="M 402.377991,164.479294 A 649.739964,649.739964 0,0 1,-342.486572,165.831345"
              stroke="#cbeae5" stroke-width="1.0" stroke-opacity="1.0"/>
        <path stroke-linecap="round" fill="none" class="id_n0 id_n34"
              d="M 407.628693,135.990936 A 446.311831,446.311831 0,0 1,427.185211,-364.189606"
              stroke="#a9ddcf" stroke-width="1.0" stroke-opacity="1.0"/>
        <path stroke-linecap="round" fill="none" class="id_n0 id_n35"
              d="M 401.613983,163.346725 A 745.962647,745.962647 0,0 1,-456.738129,104.208496"
              stroke="#cbeae5" stroke-width="1.0" stroke-opacity="1.0"/>
        <path stroke-linecap="round" fill="none" class="id_n0 id_n36"
              d="M 413.285675,172.025162 A 426.476245,426.476245 0,0 1,44.714390,474.396881"
              stroke="#90c7b1" stroke-width="1.0" stroke-opacity="1.0"/>
        <path stroke-linecap="round" fill="none" class="id_n0 id_n48"
              d="M 402.635529,164.826324 A 600.729092,600.729092 0,0 1,-283.171112,181.884018"
              stroke="#a9ddcf" stroke-width="1.0" stroke-opacity="1.0"/>
        <path stroke-linecap="round" fill="none" class="id_n1 id_n8"
              d="M -444.046570,-394.076782 A 701.105115,701.105115 0,0 1,247.391754,21.147322"
              stroke="#cbeae5" stroke-width="1.0" stroke-opacity="1.0"/>
        <path stroke-linecap="round" fill="none" class="id_n2 id_n11"
              d="M -14.811233,-0.598814 A 390.546631,390.546631 0,0 1,48.476147,-429.513641"
              stroke="#cbeae5" stroke-width="1.0" stroke-opacity="1.0"/>
        <path stroke-linecap="round" fill="none" class="id_n2 id_n49"
              d="M -25.664280,19.555918 A 372.780111,372.780111 0,0 1,-387.936279,-177.098907"
              stroke="#a9ddcf" stroke-width="1.0" stroke-opacity="1.0"/>
        <path stroke-linecap="round" fill="none" class="id_n3 id_n22"
              d="M 375.821503,337.887329 A 558.261290,558.261290 0,0 1,-42.189220,-140.151764"
              stroke="#cbeae5" stroke-width="1.0" stroke-opacity="1.0"/>
        <path stroke-linecap="round" fill="none" class="id_n3 id_n29"
              d="M 377.893494,352.288757 A 178.832963,178.832963 0,0 1,199.548523,340.863647"
              stroke="#90c7b1" stroke-width="1.0" stroke-opacity="1.0"/>
        <path stroke-linecap="round" fill="none" class="id_n6 id_n14"
              d="M -468.986664,-180.654037 A 795.706450,795.706450 0,0 1,274.280579,361.694702"
              stroke="#cbeae5" stroke-width="1.0" stroke-opacity="1.0"/>
        <path stroke-linecap="round" fill="none" class="id_n6 id_n27"
              d="M -469.789948,-186.291855 A 58.903317,58.903317 0,0 1,-438.064484,-181.086777"
              stroke="#a9ddcf" stroke-width="1.0" stroke-opacity="1.0"/>
        <path stroke-linecap="round" fill="none" class="id_n7 id_n20"
              d="M 179.585953,-195.186478 A 539.522633,539.522633 0,0 1,-64.534889,366.583618"
              stroke="#cbeae5" stroke-width="1.0" stroke-opacity="1.0"/>
        <path stroke-linecap="round" fill="none" class="id_n7 id_n37"
              d="M 188.308929,-199.484573 A 170.939070,170.939070 0,0 1,209.772018,-31.679522"
              stroke="#76b293" stroke-width="1.0" stroke-opacity="1.0"/>
        <path stroke-linecap="round" fill="none" class="id_n9 id_n17"
              d="M 42.978806,-409.222900 A 619.945654,619.945654 0,0 1,-168.459503,267.612457"
              stroke="#a9ddcf" stroke-width="1.0" stroke-opacity="1.0"/>
        <path stroke-linecap="round" fill="none" class="id_n9 id_n39"
              d="M 41.710396,-408.845673 A 449.698519,449.698519 0,0 1,-136.974319,63.091274"
              stroke="#a9ddcf" stroke-width="1.0" stroke-opacity="1.0"/>
        <path stroke-linecap="round" fill="none" class="id_n10 id_n13"
              d="M -147.748291,212.743576 A 243.954305,243.954305 0,0 1,10.001693,9.548757"
              stroke="#cbeae5" stroke-width="1.0" stroke-opacity="1.0"/>
        <path stroke-linecap="round" fill="none" class="id_n10 id_n23"
              d="M -145.051239,213.101334 A 322.524706,322.524706 0,0 1,109.206955,-30.020262"
              stroke="#cbeae5" stroke-width="1.0" stroke-opacity="1.0"/>
        <path stroke-linecap="round" fill="none" class="id_n10 id_n42"
              d="M -160.391159,216.247543 A 320.940742,320.940742 0,0 1,-159.296875,-133.634689"
              stroke="#cbeae5" stroke-width="1.0" stroke-opacity="1.0"/>
        <path stroke-linecap="round" fill="none" class="id_n11 id_n15"
              d="M 53.679825,-429.227325 A 299.765588,299.765588 0,0 1,-245.088669,-302.804230"
              stroke="#6eba9b" stroke-width="1.0" stroke-opacity="1.0"/>
        <path stroke-linecap="round" fill="none" class="id_n11 id_n26"
              d="M 81.593712,-435.908203 A 808.330504,808.330504 0,0 1,450.905426,423.343658"
              stroke="#a9ddcf" stroke-width="1.0" stroke-opacity="1.0"/>
        <path stroke-linecap="round" fill="none" class="id_n12 id_n15"
              d="M -369.227173,134.066254 A 391.133178,391.133178 0,0 1,-284.317505,-291.815521"
              stroke="#6eba9b" stroke-width="1.0" stroke-opacity="1.0"/>
        <path stroke-linecap="round" fill="none" class="id_n12 id_n19"
              d="M -353.752960,133.756760 A 555.716632,555.716632 0,0 1,178.066711,-207.638138"
              stroke="#a9ddcf" stroke-width="1.0" stroke-opacity="1.0"/>
        <path stroke-linecap="round" fill="none" class="id_n13 id_n15"
              d="M 12.267841,-1.149620 A 359.306830,359.306830 0,0 1,-264.001251,-284.875885"
              stroke="#6eba9b" stroke-width="1.0" stroke-opacity="1.0"/>
        <path stroke-linecap="round" fill="none" class="id_n14 id_n34"
              d="M 273.089874,365.358398 A 652.077000,652.077000 0,0 1,424.289764,-366.865387"
              stroke="#87cfb9" stroke-width="1.0" stroke-opacity="1.0"/>
        <path stroke-linecap="round" fill="none" class="id_n14 id_n49"
              d="M 261.346191,382.049072 A 745.122346,745.122346 0,0 1,-392.727203,-175.372513"
              stroke="#87cfb9" stroke-width="1.0" stroke-opacity="1.0"/>
        <path stroke-linecap="round" fill="none" class="id_n15 id_n17"
              d="M -253.813522,-293.090973 A 495.379924,495.379924 0,0 1,-176.193741,261.002960"
              stroke="#4cac86" stroke-width="1.0" stroke-opacity="1.0"/>
        <path stroke-linecap="round" fill="none" class="id_n16 id_n40"
              d="M -443.140747,468.110474 A 983.584149,983.584149 0,0 1,402.970276,-304.251923"
              stroke="#cbeae5" stroke-width="1.0" stroke-opacity="1.0"/>
        <path stroke-linecap="round" fill="none" class="id_n16 id_n48"
              d="M -450.727112,468.047485 A 291.886789,291.886789 0,0 1,-321.855438,180.684418"
              stroke="#a9ddcf" stroke-width="1.0" stroke-opacity="1.0"/>
        <path stroke-linecap="round" fill="none" class="id_n17 id_n25"
              d="M -170.482758,269.935669 A 315.497221,315.497221 0,0 1,172.854584,269.616821"
              stroke="#87cfb9" stroke-width="1.0" stroke-opacity="1.0"/>
        <path stroke-linecap="round" fill="none" class="id_n17 id_n38"
              d="M -194.223984,299.970062 A 190.366725,190.366725 0,0 1,-351.813599,410.761810"
              stroke="#4cac86" stroke-width="1.0" stroke-opacity="1.0"/>
        <path stroke-linecap="round" fill="none" class="id_n17 id_n44"
              d="M -168.884964,272.670837 A 499.961172,499.961172 0,0 1,387.873810,368.858673"
              stroke="#66c2a4" stroke-width="1.0" stroke-opacity="1.0"/>
        <path stroke-linecap="round" fill="none" class="id_n19 id_n37"
              d="M 211.904434,-189.591217 A 162.779751,162.779751 0,0 1,212.213791,-30.284958"
              stroke="#54a57d" stroke-width="1.0" stroke-opacity="1.0"/>
        <path stroke-linecap="round" fill="none" class="id_n19 id_n46"
              d="M 187.370956,-191.770691 A 211.922052,211.922052 0,0 1,-25.531021,-142.001404"
              stroke="#54a57d" stroke-width="1.0" stroke-opacity="1.0"/>
        <path stroke-linecap="round" fill="none" class="id_n20 id_n27"
              d="M -102.769073,370.628021 A 533.752776,533.752776 0,0 1,-421.189087,-144.492142"
              stroke="#87cfb9" stroke-width="1.0" stroke-opacity="1.0"/>
        <path stroke-linecap="round" fill="none" class="id_n20 id_n36"
              d="M -64.647057,381.980835 A 120.126580,120.126580 0,0 1,15.424762,453.828125"
              stroke="#6eba9b" stroke-width="1.0" stroke-opacity="1.0"/>
        <path stroke-linecap="round" fill="none" class="id_n21 id_n47"
              d="M 160.353836,15.800398 A 222.504925,222.504925 0,0 1,-4.183059,-146.905746"
              stroke="#a9ddcf" stroke-width="1.0" stroke-opacity="1.0"/>
        <path stroke-linecap="round" fill="none" class="id_n22 id_n38"
              d="M -42.262444,-143.159012 A 552.179493,552.179493 0,0 1,-353.863342,401.760101"
              stroke="#6eba9b" stroke-width="1.0" stroke-opacity="1.0"/>
        <path stroke-linecap="round" fill="none" class="id_n22 id_n41"
              d="M -55.801483,-146.674194 A 38.040942,38.040942 0,0 1,-60.146763,-143.551453"
              stroke="#a9ddcf" stroke-width="1.0" stroke-opacity="1.0"/>
        <path stroke-linecap="round" fill="none" class="id_n23 id_n37"
              d="M 151.709137,-36.543869 A 59.399176,59.399176 0,0 1,183.074188,-27.036425"
              stroke="#54a57d" stroke-width="1.0" stroke-opacity="1.0"/>
        <path stroke-linecap="round" fill="none" class="id_n24 id_n29"
              d="M 309.057373,462.356049 A 168.809108,168.809108 0,0 1,186.734283,349.255371"
              stroke="#90c7b1" stroke-width="1.0" stroke-opacity="1.0"/>
        <path stroke-linecap="round" fill="none" class="id_n24 id_n39"
              d="M 308.794067,464.697357 A 518.508687,518.508687 0,0 1,-149.932846,97.994659"
              stroke="#a9ddcf" stroke-width="1.0" stroke-opacity="1.0"/>
        <path stroke-linecap="round" fill="none" class="id_n26 id_n29"
              d="M 426.092102,449.340118 A 241.652110,241.652110 0,0 1,193.333084,346.492828"
              stroke="#6eba9b" stroke-width="1.0" stroke-opacity="1.0"/>
        <path stroke-linecap="round" fill="none" class="id_n26 id_n33"
              d="M 435.833252,428.405792 A 493.891531,493.891531 0,0 1,491.671936,-126.508247"
              stroke="#a9ddcf" stroke-width="1.0" stroke-opacity="1.0"/>
        <path stroke-linecap="round" fill="none" class="id_n29 id_n46"
              d="M 163.744675,317.261475 A 440.791812,440.791812 0,0 1,-50.920914,-127.583046"
              stroke="#19824a" stroke-width="1.0" stroke-opacity="1.0"/>
        <path stroke-linecap="round" fill="none" class="id_n33 id_n46"
              d="M 490.507111,-132.286972 A 461.616091,461.616091 0,0 1,-28.421989,-136.690460"
              stroke="#54a57d" stroke-width="1.0" stroke-opacity="1.0"/>
        <path stroke-linecap="round" fill="none" class="id_n34 id_n36"
              d="M 444.797821,-362.667023 A 796.114013,796.114013 0,0 1,42.090923,465.171143"
              stroke="#4cac86" stroke-width="1.0" stroke-opacity="1.0"/>
        <path stroke-linecap="round" fill="none" class="id_n35 id_n37"
              d="M -460.041656,75.433113 A 567.832975,567.832975 0,0 1,179.156738,-21.571899"
              stroke="#54a57d" stroke-width="1.0" stroke-opacity="1.0"/>
        <path stroke-linecap="round" fill="none" class="id_n35 id_n38"
              d="M -458.582886,101.720604 A 280.744007,280.744007 0,0 1,-367.954254,389.308502"
              stroke="#6eba9b" stroke-width="1.0" stroke-opacity="1.0"/>
        <path stroke-linecap="round" fill="none" class="id_n36 id_n47"
              d="M 9.316285,460.284088 A 538.442412,538.442412 0,0 1,-21.093323,-150.181656"
              stroke="#4cac86" stroke-width="1.0" stroke-opacity="1.0"/>
        <path stroke-linecap="round" fill="none" class="id_n37 id_n45"
              d="M 180.442184,-16.764868 A 452.015159,452.015159 0,0 1,-131.792480,-416.738373"
              stroke="#54a57d" stroke-width="1.0" stroke-opacity="1.0"/>
        <path stroke-linecap="round" fill="none" class="id_n42 id_n44"
              d="M -126.231384,-149.501221 A 640.968806,640.968806 0,0 1,400.069733,362.606750"
              stroke="#87cfb9" stroke-width="1.0" stroke-opacity="1.0"/>
        <path stroke-linecap="round" fill="none" class="id_n42 id_n46"
              d="M -128.467896,-162.005478 A 82.532968,82.532968 0,0 1,-66.897842,-161.786514"
              stroke="#54a57d" stroke-width="1.0" stroke-opacity="1.0"/>
    </g>
    <g id="arrows">
        <polyline fill="#cbeae5" fill-opacity="1.0" class="id_n0 id_n12"
                  points="-344.917175,164.072906 -341.607361,164.616043 -343.365784,167.046646"
                  stroke="none"/>
        <polyline fill="#a9ddcf" fill-opacity="1.0" class="id_n0 id_n34"
                  points="429.024963,-366.559265 428.370056,-363.269714 426.000366,-365.109497"
                  stroke="none"/>
        <polyline fill="#cbeae5" fill-opacity="1.0" class="id_n0 id_n35"
                  points="-459.034821,102.278404 -455.773102,103.060158 -457.703217,105.356834"
                  stroke="none"/>
        <polyline fill="#90c7b1" fill-opacity="1.0" class="id_n0 id_n36"
                  points="41.721119,474.597717 44.613968,472.900238 44.814812,475.893524"
                  stroke="none"/>
        <polyline fill="#a9ddcf" fill-opacity="1.0" class="id_n0 id_n48"
                  points="-285.643738,180.185181 -282.321686,180.647705 -284.020538,183.120331"
                  stroke="none"/>
        <polyline fill="#cbeae5" fill-opacity="1.0" class="id_n1 id_n8"
                  points="248.562103,23.909620 246.010605,21.732492 248.772903,20.562151"
                  stroke="none"/>
        <polyline fill="#cbeae5" fill-opacity="1.0" class="id_n2 id_n11"
                  points="50.552433,-431.679047 49.558857,-428.475494 47.393436,-430.551788"
                  stroke="none"/>
        <polyline fill="#a9ddcf" fill-opacity="1.0" class="id_n2 id_n49"
                  points="-389.259491,-179.791321 -386.590088,-177.760513 -389.282471,-176.437302"
                  stroke="none"/>
        <polyline fill="#cbeae5" fill-opacity="1.0" class="id_n3 id_n22"
                  points="-42.467575,-143.138824 -40.695690,-140.290939 -43.682751,-140.012589"
                  stroke="none"/>
        <polyline fill="#90c7b1" fill-opacity="1.0" class="id_n3 id_n29"
                  points="197.163040,339.044434 200.458130,339.670898 198.638916,342.056396"
                  stroke="none"/>
        <polyline fill="#cbeae5" fill-opacity="1.0" class="id_n6 id_n14"
                  points="275.194305,364.552155 272.851837,362.151550 275.709320,361.237854"
                  stroke="none"/>
        <polyline fill="#a9ddcf" fill-opacity="1.0" class="id_n6 id_n27"
                  points="-435.650208,-179.305984 -438.954895,-179.879639 -437.174072,-182.293915"
                  stroke="none"/>
        <polyline fill="#cbeae5" fill-opacity="1.0" class="id_n7 id_n20"
                  points="-67.114326,368.115448 -65.300804,365.293884 -63.768974,367.873352"
                  stroke="none"/>
        <polyline fill="#76b293" fill-opacity="1.0" class="id_n7 id_n37"
                  points="208.446213,-28.988379 208.426453,-32.342422 211.117584,-31.016621"
                  stroke="none"/>
        <polyline fill="#a9ddcf" fill-opacity="1.0" class="id_n9 id_n17"
                  points="-170.864655,269.405579 -169.356064,266.409882 -167.562943,268.815033"
                  stroke="none"/>
        <polyline fill="#a9ddcf" fill-opacity="1.0" class="id_n9 id_n39"
                  points="-139.471161,64.754356 -137.805878,61.842861 -136.142792,64.339691"
                  stroke="none"/>
        <polyline fill="#cbeae5" fill-opacity="1.0" class="id_n10 id_n13"
                  points="12.860386,8.638879 10.456631,10.978103 9.546753,8.119411"
                  stroke="none"/>
        <polyline fill="#cbeae5" fill-opacity="1.0" class="id_n10 id_n23"
                  points="112.173035,-30.470119 109.431885,-28.537222 108.982025,-31.503302"
                  stroke="none"/>
        <polyline fill="#cbeae5" fill-opacity="1.0" class="id_n10 id_n42"
                  points="-157.564865,-136.084213 -158.072113,-132.768677 -160.521637,-134.500702"
                  stroke="none"/>
        <polyline fill="#6eba9b" fill-opacity="1.0" class="id_n11 id_n15"
                  points="-248.022858,-303.429108 -244.776215,-304.271332 -245.401123,-301.337128"
                  stroke="none"/>
        <polyline fill="#a9ddcf" fill-opacity="1.0" class="id_n11 id_n26"
                  points="450.235535,426.267883 449.443298,423.008728 452.367554,423.678589"
                  stroke="none"/>
        <polyline fill="#6eba9b" fill-opacity="1.0" class="id_n12 id_n15"
                  points="-282.134918,-293.873718 -283.288391,-290.724213 -285.346619,-292.906830"
                  stroke="none"/>
        <polyline fill="#a9ddcf" fill-opacity="1.0" class="id_n12 id_n19"
                  points="181.062210,-207.473755 177.984528,-206.140396 178.148895,-209.135880"
                  stroke="none"/>
        <polyline fill="#6eba9b" fill-opacity="1.0" class="id_n13 id_n15"
                  points="-264.468597,-287.839264 -262.519562,-285.109558 -265.482941,-284.642212"
                  stroke="none"/>
        <polyline fill="#87cfb9" fill-opacity="1.0" class="id_n14 id_n34"
                  points="426.507172,-368.886017 425.300079,-365.756683 423.279449,-367.974091"
                  stroke="none"/>
        <polyline fill="#87cfb9" fill-opacity="1.0" class="id_n14 id_n49"
                  points="-393.425537,-178.290100 -391.268402,-175.721680 -394.186005,-175.023346"
                  stroke="none"/>
        <polyline fill="#4cac86" fill-opacity="1.0" class="id_n15 id_n17"
                  points="-177.590073,263.658173 -177.521362,260.304810 -174.866119,261.701111"
                  stroke="none"/>
        <polyline fill="#cbeae5" fill-opacity="1.0" class="id_n16 id_n40"
                  points="405.953278,-304.570892 403.129761,-302.760437 402.810791,-305.743408"
                  stroke="none"/>
        <polyline fill="#a9ddcf" fill-opacity="1.0" class="id_n16 id_n48"
                  points="-319.282288,179.142044 -321.084259,181.970993 -322.626617,179.397842"
                  stroke="none"/>
        <polyline fill="#87cfb9" fill-opacity="1.0" class="id_n17 id_n25"
                  points="175.312042,271.337585 171.994217,270.845551 173.714951,268.388092"
                  stroke="none"/>
        <polyline fill="#4cac86" fill-opacity="1.0" class="id_n17 id_n38"
                  points="-354.812897,410.827271 -351.846313,409.262177 -351.780884,412.261444"
                  stroke="none"/>
        <polyline fill="#66c2a4" fill-opacity="1.0" class="id_n17 id_n44"
                  points="389.975586,370.999359 386.803467,369.909546 388.944153,367.807800"
                  stroke="none"/>
        <polyline fill="#54a57d" fill-opacity="1.0" class="id_n19 id_n37"
                  points="210.569489,-27.775713 210.959167,-31.107101 213.468414,-29.462811"
                  stroke="none"/>
        <polyline fill="#54a57d" fill-opacity="1.0" class="id_n19 id_n46"
                  points="-28.331617,-143.076889 -24.993280,-143.401703 -26.068762,-140.601105"
                  stroke="none"/>
        <polyline fill="#87cfb9" fill-opacity="1.0" class="id_n20 id_n27"
                  points="-420.975922,-147.484558 -419.692871,-144.385574 -422.685303,-144.598709"
                  stroke="none"/>
        <polyline fill="#6eba9b" fill-opacity="1.0" class="id_n20 id_n36"
                  points="16.251879,456.711853 13.982899,454.241669 16.866625,453.414581"
                  stroke="none"/>
        <polyline fill="#a9ddcf" fill-opacity="1.0" class="id_n21 id_n47"
                  points="-4.756849,-149.850372 -2.710750,-147.192642 -5.655366,-146.618851"
                  stroke="none"/>
        <polyline fill="#6eba9b" fill-opacity="1.0" class="id_n22 id_n38"
                  points="-356.595276,402.999695 -354.483124,400.394135 -353.243561,403.126068"
                  stroke="none"/>
        <polyline fill="#a9ddcf" fill-opacity="1.0" class="id_n22 id_n41"
                  points="-63.056717,-142.821945 -60.511520,-145.006424 -59.782013,-142.096481"
                  stroke="none"/>
        <polyline fill="#54a57d" fill-opacity="1.0" class="id_n23 id_n37"
                  points="185.230713,-24.950905 182.031433,-25.958164 184.116943,-28.114689"
                  stroke="none"/>
        <polyline fill="#90c7b1" fill-opacity="1.0" class="id_n24 id_n29"
                  points="186.020233,346.341614 188.191177,348.898346 185.277390,349.612396"
                  stroke="none"/>
        <polyline fill="#a9ddcf" fill-opacity="1.0" class="id_n24 id_n39"
                  points="-150.739441,95.105118 -148.488083,97.591362 -151.377609,98.397957"
                  stroke="none"/>
        <polyline fill="#6eba9b" fill-opacity="1.0" class="id_n26 id_n29"
                  points="191.758331,343.939392 194.609802,345.705444 192.056366,347.280212"
                  stroke="none"/>
        <polyline fill="#a9ddcf" fill-opacity="1.0" class="id_n26 id_n33"
                  points="493.658081,-128.756638 492.796143,-125.515182 490.547729,-127.501312"
                  stroke="none"/>
        <polyline fill="#19824a" fill-opacity="1.0" class="id_n29 id_n46"
                  points="-50.409786,-130.539185 -49.442844,-127.327484 -52.398983,-127.838608"
                  stroke="none"/>
        <polyline fill="#54a57d" fill-opacity="1.0" class="id_n33 id_n46"
                  points="-30.845503,-138.458664 -27.537882,-137.902222 -29.306097,-135.478699"
                  stroke="none"/>
        <polyline fill="#4cac86" fill-opacity="1.0" class="id_n34 id_n36"
                  points="39.439846,466.575348 41.388821,463.845612 42.793026,466.496674"
                  stroke="none"/>
        <polyline fill="#54a57d" fill-opacity="1.0" class="id_n35 id_n37"
                  points="181.824234,-20.199142 178.470352,-20.238152 179.843124,-22.905647"
                  stroke="none"/>
        <polyline fill="#6eba9b" fill-opacity="1.0" class="id_n35 id_n38"
                  points="-368.848236,392.172211 -369.386108,388.861511 -366.522400,389.755493"
                  stroke="none"/>
        <polyline fill="#4cac86" fill-opacity="1.0" class="id_n36 id_n47"
                  points="-19.461426,-152.698990 -19.834661,-149.365707 -22.351984,-150.997604"
                  stroke="none"/>
        <polyline fill="#54a57d" fill-opacity="1.0" class="id_n37 id_n45"
                  points="-131.916779,-419.735809 -130.293762,-416.800537 -133.291199,-416.676208"
                  stroke="none"/>
        <polyline fill="#87cfb9" fill-opacity="1.0" class="id_n42 id_n44"
                  points="400.580719,365.562927 398.591644,362.862244 401.547821,362.351257"
                  stroke="none"/>
        <polyline fill="#54a57d" fill-opacity="1.0" class="id_n42 id_n46"
                  points="-64.302765,-160.281326 -67.650436,-160.488983 -66.145248,-163.084045"
                  stroke="none"/>
    </g>
    <g id="nodes">
        <circle fill-opacity="1.0" fill="#edf8fb" r="18.4" cx="418.5666"
                class="id_n0" cy="152.73495" stroke="#a5adaf"
                stroke-opacity="1.0" stroke-width="3.1999998"/>
        <circle fill-opacity="1.0" fill="#edf8fb" r="18.4" cx="-463.97214"
                class="id_n1" cy="-392.35303" stroke="#a5adaf"
                stroke-opacity="1.0" stroke-width="3.1999998"/>
        <circle fill-opacity="1.0" fill="#edf8fb" r="18.4" cx="-5.797119"
                class="id_n2" cy="17.254639" stroke="#a5adaf"
                stroke-opacity="1.0" stroke-width="3.1999998"/>
        <circle fill-opacity="1.0" fill="#edf8fb" r="18.4" cx="395.2976"
                class="id_n3" cy="342.435" stroke="#a5adaf" stroke-opacity="1.0"
                stroke-width="3.1999998"/>
        <circle fill-opacity="1.0" fill="#edf8fb" r="18.4" cx="-445.91132"
                class="id_n4" cy="-105.184814" stroke="#a5adaf"
                stroke-opacity="1.0" stroke-width="3.1999998"/>
        <circle fill-opacity="1.0" fill="#edf8fb" r="18.4" cx="98.247375"
                class="id_n5" cy="185.59183" stroke="#a5adaf"
                stroke-opacity="1.0" stroke-width="3.1999998"/>
        <circle fill-opacity="1.0" fill="#edf8fb" r="18.4" cx="-488.98663"
                class="id_n6" cy="-180.68048" stroke="#a5adaf"
                stroke-opacity="1.0" stroke-width="3.1999998"/>
        <circle fill-opacity="1.0" fill="#edf8fb" r="18.4" cx="175.3728"
                class="id_n7" cy="-214.73767" stroke="#a5adaf"
                stroke-opacity="1.0" stroke-width="3.1999998"/>
        <circle fill-opacity="1.0" fill="#a9ddcf" r="18.4" cx="256.36438"
                class="id_n8" cy="42.32495" stroke="#769a90"
                stroke-opacity="1.0" stroke-width="3.1999998"/>
        <circle fill-opacity="1.0" fill="#edf8fb" r="18.4" cx="36.646423"
                class="id_n9" cy="-428.19397" stroke="#a5adaf"
                stroke-opacity="1.0" stroke-width="3.1999998"/>
        <circle fill-opacity="1.0" fill="#edf8fb" r="18.4" cx="-149.02359"
                class="id_n10" cy="232.70288" stroke="#a5adaf"
                stroke-opacity="1.0" stroke-width="3.1999998"/>
        <circle fill-opacity="1.0" fill="#a9ddcf" r="18.4" cx="64.39435"
                class="id_n11" cy="-446.11517" stroke="#769a90"
                stroke-opacity="1.0" stroke-width="3.1999998"/>
        <circle fill-opacity="1.0" fill="#a9ddcf" r="18.4" cx="-361.12128"
                class="id_n12" cy="152.34998" stroke="#769a90"
                stroke-opacity="1.0" stroke-width="3.1999998"/>
        <circle fill-opacity="1.0" fill="#a9ddcf" r="18.4" cx="31.918335"
                class="id_n13" cy="2.5730286" stroke="#769a90"
                stroke-opacity="1.0" stroke-width="3.1999998"/>
        <circle fill-opacity="1.0" fill="#a9ddcf" r="18.4" cx="281.28583"
                class="id_n14" cy="383.60193" stroke="#769a90"
                stroke-opacity="1.0" stroke-width="3.1999998"/>
        <circle fill-opacity="1.0" fill="#339768" r="18.4" cx="-267.58417"
                class="id_n15" cy="-307.5951" stroke="#236948"
                stroke-opacity="1.0" stroke-width="3.1999998"/>
        <circle fill-opacity="1.0" fill="#edf8fb" r="18.4" cx="-447.09702"
                class="id_n16" cy="487.71527" stroke="#a5adaf"
                stroke-opacity="1.0" stroke-width="3.1999998"/>
        <circle fill-opacity="1.0" fill="#66c2a4" r="18.4" cx="-186.89893"
                class="id_n17" cy="281.35974" stroke="#478772"
                stroke-opacity="1.0" stroke-width="3.1999998"/>
        <circle fill-opacity="1.0" fill="#edf8fb" r="18.4" cx="-131.40555"
                class="id_n18" cy="-253.75891" stroke="#a5adaf"
                stroke-opacity="1.0" stroke-width="3.1999998"/>
        <circle fill-opacity="1.0" fill="#a9ddcf" r="18.4" cx="201.03217"
                class="id_n19" cy="-206.37793" stroke="#769a90"
                stroke-opacity="1.0" stroke-width="3.1999998"/>
        <circle fill-opacity="1.0" fill="#a9ddcf" r="18.4" cx="-84.31058"
                class="id_n20" cy="378.32764" stroke="#769a90"
                stroke-opacity="1.0" stroke-width="3.1999998"/>
        <circle fill-opacity="1.0" fill="#edf8fb" r="18.4" cx="180.0014"
                class="id_n21" cy="19.538483" stroke="#a5adaf"
                stroke-opacity="1.0" stroke-width="3.1999998"/>
        <circle fill-opacity="1.0" fill="#a9ddcf" r="18.4" cx="-44.323273"
                class="id_n22" cy="-163.05255" stroke="#769a90"
                stroke-opacity="1.0" stroke-width="3.1999998"/>
        <circle fill-opacity="1.0" fill="#a9ddcf" r="18.4" cx="131.9469"
                class="id_n23" cy="-33.469177" stroke="#769a90"
                stroke-opacity="1.0" stroke-width="3.1999998"/>
        <circle fill-opacity="1.0" fill="#edf8fb" r="18.4" cx="328.76593"
                class="id_n24" cy="465.75784" stroke="#a5adaf"
                stroke-opacity="1.0" stroke-width="3.1999998"/>
        <circle fill-opacity="1.0" fill="#a9ddcf" r="18.4" cx="191.695"
                class="id_n25" cy="282.8092" stroke="#769a90"
                stroke-opacity="1.0" stroke-width="3.1999998"/>
        <circle fill-opacity="1.0" fill="#a9ddcf" r="18.4" cx="445.7696"
                class="id_n26" cy="445.7629" stroke="#769a90"
                stroke-opacity="1.0" stroke-width="3.1999998"/>
        <circle fill-opacity="1.0" fill="#66c2a4" r="18.4" cx="-419.55496"
                class="id_n27" cy="-167.43402" stroke="#478772"
                stroke-opacity="1.0" stroke-width="3.1999998"/>
        <circle fill-opacity="1.0" fill="#edf8fb" r="18.4" cx="83.98706"
                class="id_n28" cy="-422.84363" stroke="#a5adaf"
                stroke-opacity="1.0" stroke-width="3.1999998"/>
        <circle fill-opacity="1.0" fill="#339768" r="18.4" cx="181.25989"
                class="id_n29" cy="326.91638" stroke="#236948"
                stroke-opacity="1.0" stroke-width="3.1999998"/>
        <circle fill-opacity="1.0" fill="#edf8fb" r="18.4" cx="117.2478"
                class="id_n30" cy="26.68692" stroke="#a5adaf"
                stroke-opacity="1.0" stroke-width="3.1999998"/>
        <circle fill-opacity="1.0" fill="#edf8fb" r="18.4" cx="-1.0741272"
                class="id_n31" cy="109.18921" stroke="#a5adaf"
                stroke-opacity="1.0" stroke-width="3.1999998"/>
        <circle fill-opacity="1.0" fill="#edf8fb" r="18.4" cx="-95.0022"
                class="id_n32" cy="-275.4038" stroke="#a5adaf"
                stroke-opacity="1.0" stroke-width="3.1999998"/>
        <circle fill-opacity="1.0" fill="#a9ddcf" r="18.4" cx="506.89893"
                class="id_n33" cy="-143.74597" stroke="#769a90"
                stroke-opacity="1.0" stroke-width="3.1999998"/>
        <circle fill-opacity="1.0" fill="#66c2a4" r="18.4" cx="441.29004"
                class="id_n34" cy="-382.357" stroke="#478772"
                stroke-opacity="1.0" stroke-width="3.1999998"/>
        <circle fill-opacity="1.0" fill="#a9ddcf" r="18.4" cx="-474.34604"
                class="id_n35" cy="89.41113" stroke="#769a90"
                stroke-opacity="1.0" stroke-width="3.1999998"/>
        <circle fill-opacity="1.0" fill="#339768" r="18.4" cx="21.765991"
                class="id_n36" cy="475.9367" stroke="#236948"
                stroke-opacity="1.0" stroke-width="3.1999998"/>
        <circle fill-opacity="1.0" fill="#006d2c" r="18.4" cx="199.60754"
                class="id_n37" cy="-11.047424" stroke="#004c1e"
                stroke-opacity="1.0" stroke-width="3.1999998"/>
        <circle fill-opacity="1.0" fill="#339768" r="18.4" cx="-374.80814"
                class="id_n38" cy="411.26355" stroke="#236948"
                stroke-opacity="1.0" stroke-width="3.1999998"/>
        <circle fill-opacity="1.0" fill="#66c2a4" r="18.4" cx="-156.1167"
                class="id_n39" cy="75.84155" stroke="#478772"
                stroke-opacity="1.0" stroke-width="3.1999998"/>
        <circle fill-opacity="1.0" fill="#a9ddcf" r="18.4" cx="425.8399"
                class="id_n40" cy="-306.69745" stroke="#769a90"
                stroke-opacity="1.0" stroke-width="3.1999998"/>
        <circle fill-opacity="1.0" fill="#a9ddcf" r="18.4" cx="-82.45639"
                class="id_n41" cy="-137.95856" stroke="#769a90"
                stroke-opacity="1.0" stroke-width="3.1999998"/>
        <circle fill-opacity="1.0" fill="#a9ddcf" r="18.4" cx="-146.0181"
                class="id_n42" cy="-152.4143" stroke="#769a90"
                stroke-opacity="1.0" stroke-width="3.1999998"/>
        <circle fill-opacity="1.0" fill="#edf8fb" r="18.4" cx="146.51105"
                class="id_n43" cy="-422.13727" stroke="#a5adaf"
                stroke-opacity="1.0" stroke-width="3.1999998"/>
        <circle fill-opacity="1.0" fill="#66c2a4" r="18.4" cx="403.98737"
                class="id_n44" cy="385.27066" stroke="#478772"
                stroke-opacity="1.0" stroke-width="3.1999998"/>
        <circle fill-opacity="1.0" fill="#a9ddcf" r="18.4" cx="-132.74548"
                class="id_n45" cy="-439.71863" stroke="#769a90"
                stroke-opacity="1.0" stroke-width="3.1999998"/>
        <circle fill-opacity="1.0" fill="#006d2c" r="18.4" cx="-47.00226"
                class="id_n46" cy="-150.24677" stroke="#004c1e"
                stroke-opacity="1.0" stroke-width="3.1999998"/>
        <circle fill-opacity="1.0" fill="#66c2a4" r="18.4" cx="-8.582123"
                class="id_n47" cy="-169.48114" stroke="#478772"
                stroke-opacity="1.0" stroke-width="3.1999998"/>
        <circle fill-opacity="1.0" fill="#66c2a4" r="18.4" cx="-302.128"
                class="id_n48" cy="168.85956" stroke="#478772"
                stroke-opacity="1.0" stroke-width="3.1999998"/>
        <circle fill-opacity="1.0" fill="#66c2a4" r="18.4" cx="-398.081"
                class="id_n49" cy="-197.74072" stroke="#478772"
                stroke-opacity="1.0" stroke-width="3.1999998"/>
        <circle fill-opacity="1.0" fill="#edf8fb" r="18.4" cx="-1180.679"
                class="id_0" cy="-293.44693" stroke="#a5adaf"
                stroke-opacity="1.0" stroke-width="3.1999998"/>
    </g>
</svg>